<?xml version="1.0" encoding="UTF-8"?>
<svg data-bbox="115.532 56.458 323.142 453.637" viewBox="0 0 566.929 566.929" height="566.929" width="566.929" xmlns="http://www.w3.org/2000/svg" data-type="color">
    <g>
        <path d="M437.865 100.917c-13.97-2.794-28.232-4.181-42.444-4.978-14.098-.79-28.407-1.333-42.414.802-14.017 2.136-27.997 6.908-39.523 15.329-10.066 7.354-17.708 17.554-23.167 28.683-4.198 8.556-7.221 17.674-9.204 27.001-.054-2.518-.111-5.036-.145-7.555-.086-6.404.237-12.799.237-19.202 0-11.265-.756-22.92-4.851-33.529-4.17-10.804-11.845-19.062-22.026-24.504-11.399-6.093-24.318-9.419-36.617-13.168A1180.22 1180.22 0 0 0 170.587 56.5c-1.148-.298-1.794 1.049-1.095 1.88 16.861 20.064 19.397 47.606 20.412 72.749.487 12.072-.139 25.905 7.67 35.995 7.312 9.448 19.773 11.812 31.006 12.749 8.281.691 16.608.978 24.905 1.432l25.582 1.398c.028.025.053.052.084.076.066.051.14.092.219.124.865 9.908-.936 20.147-3.104 29.755-3.397 15.053-8.618 29.709-15.026 43.734-7.839 17.159-17.546 33.479-28.931 48.523-12.827 16.95-27.885 32.29-44.799 45.181a223.067 223.067 0 0 1-62.126 33.318 236.21 236.21 0 0 1-9.064 2.932c-1.383.418-.793 2.59.598 2.17 23.296-7.038 45.438-17.702 65.313-31.764 17.664-12.499 33.479-27.52 47.064-44.354 12.157-15.065 22.584-31.515 31.074-48.911 7.109-14.565 12.965-29.824 16.945-45.547 2.733-10.796 4.957-22.215 4.417-33.409-.03-.622-.092-1.242-.146-1.862 14.464-1.269 28.569 2.181 42.536 5.615 7.337 1.804 14.7 3.559 22.189 4.605 7.459 1.042 15.088 1.251 22.127-1.817 6.132-2.672 11.282-7.254 15.758-12.139 3.923-4.282 7.383-8.976 10.542-13.842 6.568-10.117 11.857-20.982 17.875-31.421 6.591-11.433 14.242-22.573 25.07-30.394.101-.073.179-.156.247-.244.9-.37 1.107-1.881-.064-2.115zm-158.916 79.011c-.837-.512-1.631-1.104-2.395-1.715-1.896-1.515-3.734-3.108-5.592-4.669-4.821-4.052-9.593-8.17-14.12-12.551-.318-.308-.632-.621-.948-.932 2.305-4.92 4.535-9.96 7.703-14.388.844-1.18-1.107-2.304-1.943-1.136-3.05 4.263-5.23 9.093-7.445 13.837-6.031-6.139-11.525-12.877-15.698-20.391 2.931-6.562 7.414-12.253 11.145-18.359.757-1.239-1.188-2.371-1.943-1.136-3.473 5.685-7.601 11.009-10.521 17.011a66.046 66.046 0 0 1-2.132-4.65c-2.597-6.328-4.153-13.054-4.244-19.906-.019-1.447-2.269-1.451-2.25 0 .124 9.23 2.599 17.685 6.567 25.464-6.694-1.768-13.468-3.095-20.335-4.037-1.416-.194-2.029 1.974-.598 2.17 7.571 1.038 15.032 2.518 22.393 4.574 4.222 7.472 9.781 14.305 15.887 20.587-5.361.599-10.753 1.087-16.142 1.217-1.446.035-1.451 2.285 0 2.25 6.015-.144 12.037-.727 18.011-1.423.057.009.114.016.17.016 4.196 4.161 8.597 8.08 12.959 11.777 2.282 1.934 4.564 3.873 6.876 5.772.391.321.788.638 1.188.951-14.017-.759-28.036-1.496-42.05-2.303-11.353-.654-24.637-1.804-32.856-10.682-8.76-9.464-7.993-23.896-8.472-35.886-.5-12.536-1.374-25.139-4.006-37.432-2.648-12.37-7.268-24.318-14.903-34.426a1179.239 1179.239 0 0 1 37.688 10.569c6.791 2.029 13.563 4.12 20.316 6.272 5.697 1.816 11.411 3.656 16.885 6.08 10.658 4.718 19.654 11.792 24.708 22.502 4.815 10.204 5.902 21.797 6.077 32.939.107 6.806-.278 13.604-.233 20.409.051 7.211.379 14.415.253 21.625zm117.262-21.48c-6.173 10.352-13.566 21.158-23.799 27.891-3.003 1.975-6.266 3.498-9.781 4.29-3.723.839-7.583.877-11.373.576-7.634-.607-15.188-2.35-22.618-4.136-13.367-3.215-26.822-6.894-40.582-6.922a67.99 67.99 0 0 0 7.108-3.593c5.018-2.902 9.73-6.296 14.377-9.752 4.773-3.55 9.541-7.16 14.448-10.556l.009.001c9.452.252 19.223.774 27.451 5.954 1.229.774 2.359-1.172 1.135-1.943-7.648-4.814-16.588-5.812-25.423-6.158 3.822-2.53 7.742-4.901 11.833-6.98 6.031-3.065 12.489-5.394 19.224-6.245.375.162.802.246 1.205.375 1.076.344 2.139.733 3.214 1.081 2.453.795 4.925 1.531 7.407 2.233 4.812 1.362 9.659 2.597 14.49 3.89 1.4.375 1.998-1.795.598-2.17-8.43-2.256-16.799-4.548-25.111-7.203-.142-.062-.292-.091-.44-.132.073-.238.135-.481.268-.707.427-.723 1.012-1.383 1.532-2.04a66.916 66.916 0 0 1 12.988-12.474c1.159-.845.037-2.798-1.135-1.943-3.611 2.633-6.984 5.575-10.028 8.85a69.528 69.528 0 0 0-4.396 5.238c-.587.771-1.386 1.826-1.577 2.893-11.548 1.669-21.536 6.911-30.995 13.266 2.046-6.193 3.792-12.484 6.057-18.604.503-1.36-1.671-1.947-2.17-.598-2.597 7.02-4.513 14.266-6.983 21.329-9.171 6.438-17.949 13.675-27.31 19.382-2.826 1.723-5.746 3.311-8.788 4.62a46.247 46.247 0 0 1-4.629 1.707c-.357.11-.719.202-1.079.303 2.773-23.557 11.817-48.482 30.494-63.982 10.525-8.734 23.817-13.867 37.127-16.469 13.682-2.675 27.661-2.391 41.523-1.776 14.828.658 29.724 1.944 44.328 4.689-18.272 14.15-27.059 36.464-38.599 55.815z" fill="#3C3C3B" data-color="1"/>
        <path d="M414.78 282.466c-3.815-1.79-11.135 5.236-16.865 15.766a70.946 70.946 0 0 0-1.451-11.036c-1.099-5.11-.021-13.188 1.021-21.002 1.404-10.528 2.617-19.622-1.169-22.198l-.106-.062c-1.133-.582-3.011-.946-5.507.636-6.535 4.141-14.034 20.066-15.4 31.533-2.472-5.298-4.959-10.037-7.249-12.928-3.283-4.146-7.146-12.136-10.553-19.186-5.375-11.119-7.467-14.973-9.511-14.662-3.457.531-6.055 2.104-7.723 4.676-3.245 5.005-3.009 13.706.745 27.381 3.11 11.335 9.08 22.857 13.031 30.481 1.602 3.093 2.867 5.535 3.393 6.917.865 2.279 1.344 7.209.353 12.646-.748 4.099-2.569 9.802-6.938 14.841.015-5-.206-9.515-.777-12.771-2.759-15.731-10.167-25.386-23.314-30.381-1.323-.503-2.88-1.101-4.607-1.765-10.75-4.132-26.995-10.376-36.374-12.72-2.373-.594-4.948-1.457-7.438-2.291-6.731-2.256-12.548-4.205-15.408-1.673-1.484 1.312-1.875 3.577-1.173 7.005 2.457 8.347 24.906 21.654 41.299 31.371 6.933 4.11 12.92 7.66 14.719 9.316 4.568 4.208.852 20.844-4.15 35.009-2.207 6.25-14.464 21.145-22.908 22.995-1.989.432-3.511.074-4.655-1.104-6.7-6.896-9.601-26.583-8.73-37.662 1.105-14.068 1.706-32.438-1.71-40.054-2.993-6.678-14.637-12.842-18.928-11.139-.771.306-2.452 1.345-1.378 4.442 4.851 11.358-.74 64.873-8.188 92.572-7.726 28.729-5.282 56.172 6.377 71.618 11.839 15.684 11.652 39.196 10.547 60.005a1.002 1.002 0 0 0 .946 1.052l.054.001a1 1 0 0 0 .998-.947c1.123-21.16 1.296-45.094-10.949-61.315-11.295-14.965-13.61-41.746-6.041-69.894 7.69-28.602 13.176-81.982 8.122-93.812-.537-1.552.015-1.771.25-1.863 3.073-1.222 13.721 4.199 16.366 10.098 2.529 5.642 3.077 19.521 1.54 39.079-.881 11.212 1.921 31.628 9.29 39.213 1.62 1.667 3.873 2.241 6.518 1.662 9.193-2.014 21.979-17.521 24.367-24.282 3.242-9.185 10.086-31.188 3.619-37.146-1.953-1.799-7.735-5.227-15.055-9.565-15.197-9.01-38.165-22.624-40.38-30.133-.519-2.548-.331-4.239.559-5.025 1.998-1.768 7.818.184 13.448 2.071 2.527.847 5.14 1.722 7.59 2.334 9.26 2.315 26.087 8.782 36.142 12.646 1.729.665 3.289 1.265 4.613 1.768 12.423 4.721 19.431 13.89 22.055 28.857.649 3.699.838 9.05.74 14.884a1.026 1.026 0 0 0-.002.124c-.235 13.481-2.002 29.503-3.233 33.774a1 1 0 1 0 1.922.554c1.241-4.304 3.016-20.317 3.287-33.95 10.293-10.218 10.624-25.531 8.487-31.158-.565-1.49-1.854-3.979-3.486-7.128-3.912-7.55-9.823-18.959-12.879-30.091-3.542-12.906-3.867-21.333-.994-25.764 1.344-2.073 3.382-3.307 6.229-3.769 1.323.709 4.757 7.812 7.524 13.537 3.452 7.143 7.365 15.239 10.785 19.558 2.689 3.395 5.728 9.599 8.689 16.224a674.558 674.558 0 0 1 3.77 8.649c3.257 7.573 6.07 14.114 8.229 17.167 2.182 3.087-3.158 22.217-10.568 42.338-.011.025-.019.05-.028.076-2.818 7.648-5.933 15.435-9.048 22.538a.97.97 0 0 0-.19.433c-4.425 10.052-8.836 18.687-12.374 23.534a290.822 290.822 0 0 1-3.137 4.186c-13.551 17.875-38.775 51.147-17.774 103.731a1 1 0 0 0 1.858-.742c-20.581-51.533 4.198-84.221 17.511-101.781 1.146-1.512 2.211-2.916 3.158-4.214 3.261-4.467 7.792-13.329 12.454-23.854.008-.008.019-.011.027-.02 4.212-4.861 11.143-10.806 18.481-17.098 14.619-12.535 29.735-25.497 27.521-33.541-1.414-5.14-.212-13.585.849-21.037 1.333-9.401 2.391-16.832-1.135-18.535zm-25.976 22.837c-2.037-2.882-4.945-9.644-8.023-16.803a687.756 687.756 0 0 0-3.696-8.483c-.244-10.641 7.93-29.476 14.687-33.759 1.354-.857 2.49-1.046 3.468-.574 2.7 1.964 1.405 11.673.262 20.246-1.064 7.981-2.165 16.235-.993 21.686 2.169 10.088 4.832 35.079-14.343 57.234 6.709-18.689 11.254-35.846 8.638-39.547zm25.126-4.579c-1.088 7.646-2.32 16.31-.796 21.851 1.877 6.82-13.409 19.928-26.896 31.491-5.503 4.719-10.777 9.242-14.892 13.298a435.942 435.942 0 0 0 7.028-17.621c15.809-16 19.581-33.963 19.639-47.301 6.21-12.998 13.824-19.144 15.906-18.169 2.2 1.062 1.037 9.238.011 16.451z" fill="#3C3C3B" data-color="1"/>
    </g>
</svg>
