<svg viewBox="0 0 200 200" height="200" width="200" xmlns="http://www.w3.org/2000/svg" data-type="color">
    <g>
        <path d="M148.7 55.4C146.4 35.5 125.4 20 100 20S53.6 35.5 51.2 55.4c0 0-.2 84.2-.2 85.5 0 21.6 21.9 39.1 49 39.1 27 0 49-17.5 49-39.1 0-1.3.2-2.6 0-3.9-.1 0-.3-81.6-.3-81.6z" fill="#f4d8cd" data-color="1"/>
        <path d="M108.6 108c-4.6 3-5.1 8.7-5.2 9.8-.6.5-2.8 2.4-5.2 5-.1-1.6-.1-3.2-.1-4.8 0-3 .3-6.1.6-9.1v-.1c.1-.7.2-1.5.3-2.2h.1c1.3-.5 2.9-1.4 4.7-2.4 1.3.4 2.6.5 3.8.5 1.9 0 3.6-.5 5.2-1.4 4.2-2.6 5.2-8 5.2-8.2l.1-.4-.4-.1c-5.6-1.2-9.7-.7-12.2 1.6-2.7 2.6-2.4 6.4-2.3 7.3-1.5.8-2.9 1.5-4 2 .4-2.7.8-5.5 1.3-8.2.1-.9.3-1.8.4-2.7 2.8-.1 5.8-1.6 8.4-3.5v.2c0 .6.5 1.1 1.1 1.1s1.1-.5 1.1-1.1c0-.6-.4-1-1-1.1 1.4-1.1 2.8-2.3 4-3.6v.2c0 .6.5 1.1 1.1 1.1s1.1-.5 1.1-1.1-.5-1.1-1.1-1.1h-.2c.5-.6.9-.9.9-1 .1-.1.1-.2.1-.3.1 0 .2.1.3.1.6 0 1.1-.5 1.1-1.1 0-.6-.5-1.1-1.1-1.1s-1.1.5-1.1 1.1c0 .3.1.5.3.7-.1 0-.2.1-.2.1s-1.3 1.5-3.3 3.4v-.2c0-.6-.5-1.1-1.1-1.1s-1.1.5-1.1 1.1.5 1.1 1.1 1.1h.1c-1.3 1.1-2.9 2.3-4.5 3.3.1-.2.2-.4.2-.6 0-.6-.5-1.1-1.1-1.1s-1.1.5-1.1 1.1c0 .6.5 1.1 1.1 1.1-1.6.8-3.3 1.4-4.8 1.5.3-1.7.5-3.5.8-5.2.1 0 .1 0 .2-.1 1-.9 2.3-2.3 3.6-3.7 3.6-.3 6.4-1.5 8.2-3.7 3.1-3.9 2.3-9.3 2.2-9.5l-.1-.4h-.4c-5.7.7-9.4 2.6-11 5.5-1.7 3.3-.2 6.8.2 7.7-1 1.1-2 2.2-2.8 3 .1-.5.1-1 .2-1.6v-.1c.2-1.9.4-3.7.5-5.6.1-.1.1-.3 0-.4.1-2.7.1-5.4-.1-8.1.1-.1.1-.1.1-.2 0 0 .4-1.4 1.2-2.8v.1c0 .6.5 1.1 1.1 1.1s1.1-.5 1.1-1.1-.5-1.1-1.1-1.1c-.2 0-.3.1-.5.1.7-1 1.8-1.9 3.1-2.4 0 .6.5 1.1 1.1 1.1s1.1-.5 1.1-1.1-.5-1.1-1.1-1.1c-.3 0-.5.1-.7.3-.1-.1-.3-.2-.4-.1-.2.1-.4.1-.6.2 0-.1.1-.2.1-.4 0-.6-.5-1.1-1.1-1.1s-1.1.5-1.1 1.1c0 .5.4 1 .9 1.1-1.8 1.2-2.8 3.1-3.4 4.4-.2-1.5-.4-3-.7-4.5 1.5-3.4 1.6-6.5.4-9.2-2.1-4.5-7.3-6.1-7.5-6.2l-.4-.1-.1.4C92 55.7 92 59.8 94 62.5c2.1 2.8 5.6 3.2 6.8 3.2.9 4.4 1.2 8.7 1.1 13l-2.4-3c.3-3.6-.6-6.5-2.6-8.6-3.4-3.6-8.9-3.5-9.1-3.5h-.4v.4c-.1 5.8 1.2 9.7 4 11.6 1.5 1 3.1 1.3 4.5 1.3 1.5 0 2.7-.3 3.2-.5 1.2 1.3 2.2 2.6 2.9 3.7-.1 1.8-.2 3.5-.4 5.3-1.6-.1-3.2-.7-4.8-1.5.6 0 1.1-.5 1.1-1.1 0-.6-.5-1.1-1.1-1.1-.6 0-1.1.5-1.1 1.1 0 .2.1.4.2.6-1.6-1-3.2-2.2-4.5-3.3h.1c.6 0 1.1-.5 1.1-1.1 0-.6-.5-1.1-1.1-1.1S90 78.4 90 79v.2c-2-1.8-3.3-3.3-3.3-3.4-.1-.1-.1-.1-.2-.1.2-.2.3-.4.3-.7 0-.6-.5-1.1-1.1-1.1s-1.1.5-1.1 1.1.5 1.1 1.1 1.1c.1 0 .2 0 .3-.1 0 .1 0 .2.1.3.1.1.4.4.9 1h-.2c-.6 0-1.1.5-1.1 1.1s.5 1.1 1.1 1.1 1.1-.5 1.1-1.1v-.2c1.3 1.3 2.6 2.5 4 3.6-.6.1-1 .5-1 1.1 0 .6.5 1.1 1.1 1.1s1.1-.5 1.1-1.1v-.2c2.5 1.8 5.4 3.3 8.2 3.5-.4 3.6-1 7.3-1.6 11.1-.2 1-.3 2.1-.5 3.1-.7-1-1.6-2.1-2.6-3.2.3-3.6-.6-6.5-2.6-8.6-3.4-3.6-8.9-3.5-9.1-3.5h-.4v.4c-.1 5.8 1.2 9.7 4 11.6 1.5 1 3.1 1.3 4.5 1.3 1.5 0 2.7-.3 3.2-.5 1.2 1.4 2.2 2.7 2.9 3.7l-.9 6.3c-1.1-.7-3.3-2-5.8-3.4.5-.1 1-.5 1-1.1 0-.6-.5-1.1-1.1-1.1s-1.1.5-1.1 1.1c0 .2 0 .3.1.4-2.2-1.2-4.6-2.4-6.6-3.2.4-.2.6-.6.6-1 0-.6-.5-1.1-1.1-1.1s-1.1.5-1.1 1.1c0 .1 0 .3.1.4-.6-.2-1.1-.4-1.6-.5-.2 0-.5.1-.5.3s.1.5.3.5c1.5.3 4.1 1.5 6.9 2.9-.5.1-.9.5-.9 1.1 0 .6.5 1.1 1.1 1.1.6 0 1.1-.5 1.1-1.1 0-.1 0-.3-.1-.4 1.6.8 3.2 1.7 4.8 2.6h-.2c-.6 0-1.1.5-1.1 1.1 0 .6.5 1.1 1.1 1.1s1.1-.5 1.1-1.1c0-.3-.1-.5-.3-.7 1.6.9 2.8 1.7 3.2 2-.3 3-.6 6-.6 9 0 1.5 0 3 .1 4.5-.8-1-1.6-2-2.5-3 .3-3.6-.6-6.5-2.6-8.6-3.4-3.6-8.9-3.5-9.1-3.5H83v.4c-.1 5.8 1.2 9.7 4 11.6 1.5 1 3.1 1.3 4.5 1.3 1.5 0 2.7-.3 3.2-.5 1.2 1.3 2.2 2.6 2.9 3.7-3.1 3.6-6.4 8.2-6.8 12.7 0 .2.1.5.4.5.2 0 .4-.2.4-.4.4-4 3.3-8.3 6.2-11.7.3 4.3 1.1 8.3 2.2 12.2.1.2.3.3.6.3.2-.1.3-.3.3-.5-1.2-4-1.9-8.1-2.3-12.6v-.3c1.8-2 3.6-3.8 5.6-5.5 2.9 1.4 5.6 2.1 8.2 2.1 1.6 0 3.3-.3 4.8-.9 6.7-2.6 9.5-9.9 9.6-10.2l.1-.4-.4-.2c-7.9-3.2-13.9-3.5-17.9-.9zm3.7-5.4c-2 1.3-4.5 1.6-7.4 1 .8-.4 1.6-.9 2.3-1.4l3.4.5c.2 0 .5-.1.5-.4 0-.2-.1-.5-.4-.5l-2.4-.4c.9-.5 1.7-1.1 2.6-1.6l2.7.3c.2 0 .4-.2.4-.4s-.2-.4-.4-.4l-1.6-.2c1.6-1 3.2-2.1 4.7-3.1-.3 1.7-1.6 4.9-4.4 6.6zm-6.2-5.7c2.1-2 5.6-2.5 10.4-1.6-1.6 1.1-3.2 2.2-4.9 3.2l.6-2.1c.1-.2-.1-.5-.3-.5-.2-.1-.5.1-.5.3l-1 3.1c-.9.6-1.9 1.2-2.8 1.8l.3-3.1c0-.2-.1-.5-.4-.5-.2 0-.4.1-.5.4l-.4 3.8c-.9.5-1.8 1.1-2.6 1.5 0-1.3 0-4.3 2.1-6.3zm7-16.3c-1.5 1.9-3.7 3-6.6 3.3l1.8-2.1 3.4-.6c.2 0 .4-.3.4-.5s-.3-.4-.5-.4l-2.4.4c.6-.8 1.3-1.6 1.9-2.4l2.7-.7c.2-.1.4-.3.3-.5-.1-.2-.3-.4-.5-.3l-1.6.4c1.2-1.5 2.3-3 3.4-4.5-.1 1.9-.2 5.3-2.3 7.9zm-7.8-3.4c1.3-2.5 4.4-4.2 9.3-4.9-1.2 1.6-2.4 3.1-3.6 4.6l-.1-2.2c0-.2-.2-.4-.4-.4s-.4.2-.4.4l.1 3.2c-.7.9-1.4 1.7-2.1 2.6l-.7-3c-.1-.2-.3-.4-.5-.3-.2.1-.4.3-.3.5l.8 3.7c-.7.8-1.3 1.6-2 2.3-.4-1-1.4-3.9-.1-6.5zm-6.7-2.5c-.6-.7-1.2-1.3-1.8-2l-.1-3.4c0-.2-.2-.4-.5-.4-.2 0-.4.2-.4.4l.1 2.4c-.7-.8-1.4-1.5-2.1-2.2l-.3-2.7c0-.2-.2-.4-.5-.4-.2 0-.4.2-.4.5l.2 1.6c-1.3-1.4-2.6-2.7-4-4 1.7.2 5.1.8 7.4 3.2 1.6 1.7 2.4 4.1 2.4 7zm-6.8.2c-2.3-1.6-3.5-5-3.6-9.8.9.8 2.4 2.4 4.1 4.2l-2.2-.3c-.2 0-.4.1-.5.4 0 .2.1.4.4.5l3.2.3c.8.8 1.5 1.6 2.3 2.4l-3.1.3c-.2 0-.4.2-.4.5 0 .2.2.4.5.4l3.8-.3c.7.7 1.4 1.5 2 2.3-1.2.2-4.2.8-6.5-.9zm3.9 21.4c-.6-.7-1.2-1.3-1.8-2l-.1-3.4c0-.2-.2-.4-.5-.4-.2 0-.4.2-.4.4l.1 2.4c-.7-.8-1.4-1.5-2.1-2.2l-.3-2.7c0-.2-.2-.4-.5-.4-.2 0-.4.2-.4.5l.2 1.6c-1.3-1.4-2.6-2.7-4-4 1.7.2 5.1.8 7.4 3.2 1.6 1.7 2.4 4.1 2.4 7zm-6.9.2c-2.3-1.6-3.5-5-3.6-9.8.9.8 2.4 2.4 4.1 4.2l-2.2-.2c-.2 0-.5.1-.5.4 0 .2.1.4.4.5l3.2.3c.8.8 1.5 1.6 2.3 2.4l-3.1.3c-.2 0-.4.2-.4.5 0 .2.2.4.5.4l3.8-.3c.7.7 1.4 1.5 2 2.3-1.1.1-4.1.6-6.5-1zm12.4-39.9c1 2.1 1 4.6.1 7.4-.3-.9-.6-1.8-1-2.7l.9-3c.1-.2-.1-.5-.3-.5-.2-.1-.5.1-.5.3l-.6 2c-.4-.9-.8-1.9-1.3-2.8L99 55c.1-.2-.1-.5-.3-.5-.2-.1-.5.1-.5.3l-.3 1.2c-.8-1.6-1.6-3.1-2.5-4.7 1.5.7 4.5 2.3 5.8 5.3zM94.7 62c-1.7-2.3-1.8-5.9-.3-10.5 1 1.8 2 3.6 2.9 5.5L95 55.9c-.2-.1-.5 0-.6.2-.1.2 0 .5.2.6l3.3 1.5c.5 1 .9 2 1.3 2.9l-3.2-.8c-.2-.1-.5.1-.5.3-.1.2.1.5.3.5l3.9 1c.3.9.7 1.7.9 2.6v.1c-1.2-.1-4.2-.5-5.9-2.8zm-.7 56.5c-.6-.7-1.2-1.3-1.8-2l-.1-3.4c0-.2-.2-.4-.5-.4-.2 0-.4.2-.4.4l.1 2.4c-.7-.8-1.4-1.5-2.1-2.2l-.3-2.7c0-.2-.2-.4-.5-.4-.2 0-.4.2-.4.5l.2 1.6c-1.3-1.4-2.6-2.7-4-4 1.7.2 5.1.8 7.4 3.2 1.7 1.7 2.5 4.1 2.4 7zm-6.8.2c-2.3-1.6-3.5-5-3.6-9.8.9.8 2.4 2.4 4.1 4.2l-2.2-.2c-.2 0-.5.1-.5.4 0 .2.1.5.4.5l3.2.3c.8.8 1.5 1.6 2.3 2.4l-3.1.3c-.2 0-.4.2-.4.5 0 .2.2.4.4.4l3.8-.3c.7.7 1.4 1.5 2 2.3-1.1.1-4 .6-6.4-1zm21.8-9.9c3.6-2.3 8.9-2.1 15.7.6-3.2 1-6.5 2-9.6 3.1.7-1.1 1.3-2.1 1.5-2.3.2-.1.3-.4.2-.6-.1-.2-.3-.3-.5-.2-.2.1-.5.1-2.5 3.6-1.6.6-3.1 1.2-4.6 1.8l2.2-4.3c.1-.2 0-.5-.2-.6-.2-.1-.5 0-.6.2l-2.7 5.2c-.6.3-1.2.5-1.7.8 0 0-.5.2-2 1.2.4-1.9 1.3-6.2 4.8-8.5zm7.6 10.2c-3.5 1.4-7.5 1-11.9-1 1.5-1 2-1.2 2-1.2.5-.3 1.1-.5 1.7-.8l6.1 1.7c.2.1.5-.1.5-.3.1-.2-.1-.5-.3-.5l-5-1.4c1.4-.6 3-1.2 4.5-1.7l7 .8c.2 0 .5-.1.5-.4 0-.2-.1-.5-.4-.5l-5.3-.7c3.9-1.4 7.6-2.5 9.2-3-.8 2-3.6 7-8.6 9z" fill="#9f684c" data-color="2"/>
        <path d="M84.3 102.4c0-.6-.5-1.1-1.1-1.1s-1.1.5-1.1 1.1c0 .6.5 1.1 1.1 1.1s1.1-.5 1.1-1.1z" fill="#9f684c" data-color="2"/>
        <path d="M87.7 100.3c0-.6-.5-1.1-1.1-1.1-.6 0-1.1.5-1.1 1.1 0 .6.5 1.1 1.1 1.1.6 0 1.1-.5 1.1-1.1z" fill="#9f684c" data-color="2"/>
        <path d="M146.1 96.8c0-3.1-2.4-5.7-5.5-5.9l-.1-28.3c-2-19.8-19.7-34.7-41.1-34.7-21.4 0-39.1 14.9-41.1 34.7l-.1 28.3c-3.1.2-5.6 2.7-5.6 5.9 0 3.1 2.5 5.7 5.5 5.9 0 16.3-.1 30.2-.1 30.7 0 21.1 18.5 38.3 41.3 38.3s41.3-17.2 41.3-38.3v-1.3c0-.8.1-1.7 0-2.5l-.1-26.9c3.2-.3 5.6-2.8 5.6-5.9zm-92.6 0c0-2.8 2.3-5 5-5 2.8 0 5 2.3 5 5 0 2.8-2.3 5-5 5-2.8 0-5-2.2-5-5zm86.4 35.3v1.3c0 20.7-18.2 37.5-40.5 37.5S58.9 154 58.9 133.3c0-.5 0-14.4.1-30.7 3-.3 5.4-2.8 5.4-5.9 0-3.1-2.4-5.6-5.4-5.9l.1-28.2c2-19.3 19.3-33.9 40.3-33.9s38.3 14.6 40.3 33.9l.1 28.3c-3.1.2-5.5 2.8-5.5 5.9 0 3.1 2.5 5.7 5.5 5.9l.1 26.9c.1.8 0 1.6 0 2.5zm.3-30.3c-2.8 0-5-2.3-5-5 0-2.8 2.3-5 5-5 2.8 0 5 2.3 5 5s-2.2 5-5 5z" fill="#9f684c" data-color="2"/>
    </g>
</svg>
